<svg xmlns="http://www.w3.org/2000/svg" xmlns:xlink="http://www.w3.org/1999/xlink" width="50px" height="50px" viewBox="0 0 50 50" version="1.1">
<g id="surface1">
<path style="fill-rule:nonzero;fill:#ffffff;fill-opacity:1;stroke-width:1;stroke-linecap:butt;stroke-linejoin:miter;stroke:#ffffff;stroke-opacity:1;stroke-miterlimit:4;" d="M 512 19.24 C 512 9.16 503.8 0.96 493.72 0.96 L 308.88 0.96 L 308.88 74.64 C 313.44 72.08 318.72 70.6 324.36 70.6 C 341.96 70.6 356.28 84.92 356.28 102.52 C 356.28 120.16 341.96 134.44 324.36 134.44 C 318.72 134.44 313.44 133 308.88 130.44 L 308.88 204.08 L 382.52 204.08 C 379.96 208.68 378.52 213.96 378.52 219.56 C 378.52 237.2 392.8 251.48 410.44 251.48 C 428.08 251.48 442.36 237.2 442.36 219.56 C 442.36 213.96 440.88 208.68 438.36 204.08 L 512 204.08 Z M 512 19.24 " transform="matrix(0.0976562,0,0,0.0976562,0,0)"/>
<path style="fill-rule:nonzero;fill:#ffffff;fill-opacity:1;stroke-width:1;stroke-linecap:butt;stroke-linejoin:miter;stroke:#ffffff;stroke-opacity:1;stroke-miterlimit:4;" d="M 429.6 275.36 L 336.84 275.36 C 333.56 275.36 330.56 277.08 328.92 279.88 L 329 279.72 L 328.92 279.88 C 328.08 281.32 327.64 282.92 327.64 284.52 C 327.64 286.08 328.04 287.6 328.8 289 L 334.64 299.52 C 335.96 301.88 336.6 304.4 336.6 307.12 C 336.6 311.32 335 315.2 332.04 318.16 C 329.04 321.12 325.16 322.76 320.96 322.76 C 316.76 322.76 312.88 321.12 309.88 318.16 L 309.88 318.2 C 306.92 315.2 305.32 311.32 305.32 307.12 C 305.32 304.4 305.96 301.92 307.28 299.52 L 313.12 289 C 313.88 287.6 314.28 286.08 314.28 284.52 C 314.28 282.92 313.84 281.32 313 279.88 C 311.36 277.08 308.36 275.36 305.08 275.36 L 235.68 275.36 L 235.68 238.2 C 248.2 238 260.08 233.04 268.96 224.16 C 278.04 215.08 283.08 202.92 283.08 190.08 C 283.08 177.2 278.04 165.04 268.96 156 C 260.08 147.12 248.2 142.16 235.68 141.96 L 235.68 81.4 C 235.68 76.36 231.56 72.24 226.48 72.24 L 34.56 72.24 C 25.36 72.24 16.6 75.84 10.12 82.36 C 3.68 88.8 0 97.64 0 106.8 L 0 476.48 C 0 485.68 3.6 494.4 10.12 500.92 C 16.56 507.36 25.4 511.04 34.56 511.04 L 404.28 511.04 C 413.4 511.04 422.24 507.36 428.68 500.92 C 435.2 494.4 438.8 485.68 438.8 476.48 L 438.8 284.56 C 438.8 279.48 434.68 275.36 429.6 275.36 Z M 28.36 106.8 C 28.36 104.68 29.36 103.24 30.16 102.44 C 31 101.6 32.44 100.6 34.56 100.6 L 207.28 100.6 L 207.28 174.2 C 207.28 176 208.24 177.64 209.76 178.52 C 210.56 179 211.44 179.2 212.32 179.2 C 213.12 179.2 213.96 179 214.72 178.6 L 225.24 172.72 C 228.24 171.08 231.48 170.24 234.88 170.24 C 240.16 170.24 245.12 172.32 248.88 176.04 C 252.64 179.8 254.68 184.8 254.68 190.08 C 254.68 195.36 252.64 200.36 248.88 204.08 C 245.12 207.84 240.16 209.88 234.88 209.88 C 231.44 209.88 228.24 209.04 225.28 207.4 L 214.72 201.56 C 213.96 201.12 213.12 200.92 212.32 200.92 C 211.44 200.92 210.56 201.16 209.76 201.64 C 208.24 202.52 207.28 204.16 207.28 205.92 L 207.28 279.52 L 161.72 279.52 C 161.8 278.4 161.84 277.28 161.84 276.16 C 161.84 264.4 157.28 253.32 148.96 245.04 C 140.64 236.72 129.6 232.16 117.84 232.16 C 106.08 232.16 95 236.72 86.72 245.04 C 78.4 253.32 73.8 264.4 73.8 276.16 C 73.8 277.28 73.84 278.4 73.96 279.56 L 28.36 279.56 Z M 207.28 482.68 L 34.56 482.68 C 32.44 482.68 31 481.68 30.2 480.88 C 29.36 480.04 28.36 478.6 28.36 476.48 L 28.36 303.72 L 101.96 303.72 C 103.76 303.72 105.4 302.8 106.28 301.28 C 107.2 299.72 107.2 297.84 106.36 296.28 L 100.52 285.76 C 98.84 282.8 98 279.56 98 276.16 C 98 270.88 100.08 265.88 103.8 262.16 C 107.56 258.4 112.56 256.32 117.84 256.32 C 123.12 256.32 128.08 258.4 131.84 262.12 C 135.6 265.88 137.64 270.88 137.64 276.16 C 137.64 279.56 136.8 282.8 135.16 285.76 L 129.32 296.28 C 128.44 297.84 128.48 299.72 129.4 301.24 C 130.28 302.8 131.92 303.72 133.68 303.72 L 207.28 303.72 L 207.28 349.32 C 206.16 349.24 205.04 349.2 203.92 349.2 C 192.16 349.2 181.08 353.76 172.8 362.08 C 164.48 370.36 159.88 381.44 159.92 393.2 C 159.88 404.96 164.48 416 172.8 424.32 C 181.08 432.64 192.16 437.2 203.92 437.2 C 205.04 437.2 206.16 437.16 207.28 437.08 Z M 410.44 476.48 C 410.44 478.6 409.44 480.04 408.6 480.84 C 407.8 481.68 406.36 482.68 404.24 482.68 L 231.48 482.68 L 231.48 409.08 C 231.48 407.28 230.56 405.64 229.04 404.76 C 228.24 404.28 227.36 404.08 226.48 404.08 C 225.64 404.08 224.8 404.28 224.08 404.68 L 213.52 410.52 C 210.56 412.2 207.32 413.04 203.92 413.04 C 198.64 413.04 193.64 410.96 189.92 407.24 C 186.16 403.48 184.12 398.48 184.08 393.2 C 184.12 387.92 186.16 382.92 189.92 379.2 C 193.64 375.44 198.64 373.36 203.92 373.36 C 207.32 373.36 210.52 374.2 213.52 375.84 L 224.08 381.72 C 224.8 382.12 225.64 382.32 226.48 382.32 C 227.36 382.32 228.24 382.12 229.04 381.64 C 230.56 380.76 231.48 379.12 231.48 377.32 L 231.48 303.72 L 277.08 303.72 C 277 304.84 276.96 306 276.96 307.12 C 276.92 318.88 281.52 329.92 289.84 338.24 C 298.12 346.56 309.2 351.12 320.96 351.12 C 332.72 351.12 343.76 346.56 352.08 338.24 C 360.4 329.92 364.96 318.88 364.96 307.12 C 364.96 306 364.92 304.88 364.84 303.72 L 410.44 303.72 Z M 410.44 476.48 " transform="matrix(0.0976562,0,0,0.0976562,0,0)"/>
</g>
</svg>