<?xml version="1.0" encoding="UTF-8"?>
<svg xmlns="http://www.w3.org/2000/svg" xmlns:xlink="http://www.w3.org/1999/xlink" width="68px" height="68px" viewBox="0 0 68 67" version="1.1">
<defs>
<linearGradient id="linear0" gradientUnits="userSpaceOnUse" x1="992.991028" y1="483.701996" x2="568.869995" y2="758.304016" gradientTransform="matrix(0.0715714,0,0,0.0706319,-0.465214,-0.449225)">
<stop offset="0.081" style="stop-color:rgb(41.176471%,82.745098%,65.490196%);stop-opacity:1;"/>
<stop offset="1" style="stop-color:rgb(41.176471%,82.745098%,65.490196%);stop-opacity:0;"/>
</linearGradient>
<linearGradient id="linear1" gradientUnits="userSpaceOnUse" x1="323.384003" y1="12.396" x2="56.936001" y2="577.502991" gradientTransform="matrix(0.0715714,0,0,0.0706319,-0.465214,-0.449225)">
<stop offset="0" style="stop-color:rgb(41.176471%,82.745098%,65.490196%);stop-opacity:1;"/>
<stop offset="0.823" style="stop-color:rgb(16.470588%,70.980392%,52.54902%);stop-opacity:1;"/>
<stop offset="1" style="stop-color:rgb(10.980392%,68.235294%,49.803922%);stop-opacity:1;"/>
</linearGradient>
<linearGradient id="linear2" gradientUnits="userSpaceOnUse" x1="5.828" y1="697.848022" x2="704.494019" y2="917.116028" gradientTransform="matrix(0.0715714,0,0,0.0706319,-0.465214,-0.449225)">
<stop offset="0.077" style="stop-color:rgb(10.980392%,68.235294%,49.803922%);stop-opacity:1;"/>
<stop offset="0.164" style="stop-color:rgb(10.980392%,63.921569%,47.45098%);stop-opacity:1;"/>
<stop offset="0.316" style="stop-color:rgb(10.980392%,52.156863%,40.784314%);stop-opacity:1;"/>
<stop offset="0.516" style="stop-color:rgb(10.588235%,33.333333%,30.196078%);stop-opacity:1;"/>
<stop offset="0.719" style="stop-color:rgb(10.588235%,11.764706%,18.039216%);stop-opacity:1;"/>
</linearGradient>
</defs>
<g id="surface1">
<path style=" stroke:none;fill-rule:nonzero;fill:rgb(10.588235%,11.764706%,18.039216%);fill-opacity:1;" d="M 23.898438 26.589844 C 26.644531 26.589844 28.878906 28.035156 30.023438 30.550781 L 30.109375 30.75 L 34.71875 29.203125 L 34.625 28.96875 C 32.84375 24.675781 28.730469 22.011719 23.898438 22.011719 C 20.5 22.011719 17.734375 23.085938 15.453125 25.296875 C 13.183594 27.492188 12.039062 30.253906 12.039062 33.503906 C 12.039062 36.730469 13.191406 39.480469 15.453125 41.667969 C 17.734375 43.878906 20.5 44.953125 23.898438 44.953125 C 28.730469 44.953125 32.835938 42.28125 34.625 37.996094 L 34.71875 37.761719 L 30.101562 36.214844 L 30.023438 36.421875 C 28.992188 38.898438 26.703125 40.375 23.898438 40.375 C 21.988281 40.375 20.371094 39.71875 19.09375 38.417969 C 17.800781 37.105469 17.148438 35.445312 17.148438 33.503906 C 17.148438 31.546875 17.785156 29.921875 19.09375 28.546875 C 20.375 27.246094 21.988281 26.589844 23.898438 26.589844 Z M 23.898438 26.589844 "/>
<path style=" stroke:none;fill-rule:nonzero;fill:url(#linear0);" d="M 43.910156 65.550781 L 42.535156 61.078125 C 54.929688 57.363281 63.261719 46.28125 63.261719 33.503906 C 63.261719 29.980469 62.625 26.53125 61.367188 23.269531 L 65.789062 21.609375 C 67.253906 25.410156 68 29.40625 68 33.511719 C 67.992188 48.351562 58.316406 61.226562 43.910156 65.550781 Z M 43.910156 65.550781 "/>
<path style=" stroke:none;fill-rule:nonzero;fill:rgb(41.176471%,82.745099%,65.490198%);fill-opacity:1;" d="M 61.980469 25.054688 C 58.195312 12.863281 46.949219 4.679688 33.996094 4.679688 C 32.234375 4.679688 30.476562 4.835938 28.757812 5.136719 L 27.921875 0.539062 C 29.910156 0.1875 31.957031 0.00390625 33.996094 0.00390625 C 49.039062 0.00390625 62.101562 9.515625 66.503906 23.679688 Z M 61.980469 25.054688 "/>
<path style=" stroke:none;fill-rule:nonzero;fill:url(#linear1);" d="M 2.175781 45.3125 C 0.730469 41.542969 0 37.566406 0 33.503906 C 0 16.199219 13.160156 1.867188 30.617188 0.171875 L 31.082031 4.820312 C 16.0625 6.28125 4.730469 18.613281 4.730469 33.503906 C 4.730469 37 5.359375 40.425781 6.597656 43.667969 Z M 2.175781 45.3125 "/>
<path style=" stroke:none;fill-rule:nonzero;fill:rgb(10.588235%,11.764706%,18.039216%);fill-opacity:1;" d="M 52.761719 22.433594 L 46.199219 38.851562 L 39.585938 22.433594 L 34.175781 22.433594 L 43.449219 44.839844 L 36.695312 61.015625 L 41.425781 61.945312 L 57.871094 22.433594 Z M 52.761719 22.433594 "/>
<path style=" stroke:none;fill-rule:nonzero;fill:url(#linear2);" d="M 37.546875 58.980469 L 36.550781 61.359375 C 36.324219 61.90625 35.800781 62.277344 35.214844 62.300781 C 34.804688 62.3125 34.40625 62.328125 33.988281 62.328125 C 21 62.328125 9.433594 53.746094 5.863281 41.457031 L 1.308594 42.742188 C 5.460938 57.015625 18.894531 66.988281 33.980469 66.996094 L 33.988281 66.996094 C 34.460938 66.996094 34.933594 66.988281 35.40625 66.96875 C 37.832031 66.871094 40 65.367188 40.933594 63.140625 L 42.277344 59.914062 Z M 37.546875 58.980469 "/>
</g>
</svg>
