<svg xmlns="http://www.w3.org/2000/svg" xmlns:xlink="http://www.w3.org/1999/xlink" width="50px" height="49px" viewBox="0 0 50 49" version="1.1" transform="matrix(1, 0, 0, 1, 0, 0)">
<g id="surface1">
<path style=" stroke:none;fill-rule:nonzero;fill:#ffffff;fill-opacity:1;" d="M 10.675781 45.339844 L 13.765625 42.941406 L 17.28125 44.644531 L 15.96875 40.960938 L 18.667969 38.132812 L 14.769531 38.253906 L 12.921875 34.800781 L 11.828125 38.566406 L 7.984375 39.257812 L 11.210938 41.464844 Z M 25 48.945312 L 26.476562 45.316406 L 30.367188 45.027344 L 27.394531 42.492188 L 28.324219 38.683594 L 25.003906 40.746094 L 21.683594 38.683594 L 22.617188 42.492188 L 19.632812 45.027344 L 23.523438 45.316406 Z M 13.496094 21.5 C 15.304688 20.820312 17.609375 19.953125 19.269531 18.921875 C 21.175781 20.695312 22.414062 22.714844 22.511719 25.167969 L 27.507812 25.167969 C 27.605469 22.714844 28.839844 20.695312 30.746094 18.921875 C 32.40625 19.953125 34.710938 20.816406 36.519531 21.5 C 41.839844 23.5 39.242188 27.148438 36.136719 30.222656 C 33.289062 33.039062 29.355469 34.78125 25.003906 34.78125 C 20.65625 34.78125 16.722656 33.042969 13.871094 30.222656 C 10.8125 27.195312 8.136719 23.511719 13.496094 21.5 Z M 21.085938 16.425781 C 21.167969 15.757812 19.199219 13.21875 18.839844 11.996094 C 18.066406 10.769531 17.792969 8.808594 18.636719 7.507812 C 18.972656 6.992188 18.828125 6.070312 18.828125 5.363281 C 18.828125 -1.710938 31.167969 -1.71875 31.167969 5.363281 C 31.167969 6.257812 30.964844 6.941406 31.449219 7.644531 C 32.257812 8.820312 31.839844 10.910156 31.15625 12.003906 C 30.722656 13.285156 28.652344 15.707031 28.800781 16.4375 C 28.921875 20.0625 21.058594 19.941406 21.085938 16.425781 Z M 50 34.613281 L 47.613281 31.515625 L 49.308594 27.980469 L 45.632812 29.308594 L 42.816406 26.59375 L 42.941406 30.507812 L 39.503906 32.363281 L 43.25 33.460938 L 43.941406 37.320312 L 46.132812 34.082031 Z M 39.324219 45.339844 L 38.796875 41.453125 L 42.023438 39.246094 L 38.183594 38.546875 L 37.09375 34.785156 L 35.246094 38.238281 L 31.34375 38.113281 L 34.046875 40.941406 L 32.71875 44.636719 L 36.234375 42.933594 Z M 0 34.609375 L 3.871094 34.082031 L 6.066406 37.320312 L 6.761719 33.464844 L 10.511719 32.367188 L 7.070312 30.511719 L 7.195312 26.597656 L 4.375 29.3125 L 0.691406 27.980469 L 2.386719 31.515625 Z M 0 34.609375 "/>
</g>
</svg>