<?xml version="1.0" encoding="UTF-8"?>
<svg xmlns="http://www.w3.org/2000/svg" xmlns:xlink="http://www.w3.org/1999/xlink" width="50px" height="50px" viewBox="0 0 50 50" version="1.1">
<g id="surface1">
<path style="fill-rule:nonzero;fill:rgb(100%,100%,100%);fill-opacity:1;stroke-width:1;stroke-linecap:butt;stroke-linejoin:miter;stroke:rgb(100%,100%,100%);stroke-opacity:1;stroke-miterlimit:4;" d="M 281.919445 386.039241 C 273.999461 390.439232 265.039479 392.759227 255.999496 392.759227 C 246.959514 392.759227 237.999532 390.439232 230.079547 386.039241 L 0 257.559493 L 0 446.439122 C 0 456.239103 7.919984 464.159087 17.719965 464.159087 L 494.279028 464.159087 C 504.079008 464.159087 511.998993 456.239103 511.998993 446.439122 L 511.998993 257.559493 Z M 281.919445 386.039241 " transform="matrix(0.0976564,0,0,0.0976564,0,0)"/>
<path style="fill-rule:nonzero;fill:rgb(100%,100%,100%);fill-opacity:1;stroke-width:1;stroke-linecap:butt;stroke-linejoin:miter;stroke:rgb(100%,100%,100%);stroke-opacity:1;stroke-miterlimit:4;" d="M 494.279028 119.319765 L 346.359319 119.319765 C 346.359319 107.159789 346.359319 70.919861 346.359319 65.559871 C 346.359319 55.75989 338.439334 47.839906 328.639354 47.839906 L 183.359639 47.839906 C 173.559659 47.839906 165.639674 55.75989 165.639674 65.559871 C 165.639674 70.919861 165.639674 107.159789 165.639674 119.319765 L 17.719965 119.319765 C 7.919984 119.319765 0 127.27975 0 137.03973 L 0 206.559594 C 0 212.999581 3.479993 218.919569 9.079982 222.039563 L 224.119559 342.119327 L 224.119559 302.279405 C 224.119559 296.439417 228.83955 291.759426 234.639538 291.759426 L 277.359454 291.759426 C 283.199443 291.759426 287.879434 296.439417 287.879434 302.279405 L 287.879434 342.119327 L 502.919011 222.039563 C 508.519 218.919569 511.998993 212.999581 511.998993 206.559594 L 511.998993 137.03973 C 511.998993 127.27975 504.079008 119.319765 494.279028 119.319765 Z M 310.919388 119.319765 L 201.079604 119.319765 L 201.079604 83.879835 L 310.919388 83.879835 Z M 310.919388 119.319765 " transform="matrix(0.0976564,0,0,0.0976564,0,0)"/>
</g>
</svg>
