<?xml version="1.0" encoding="UTF-8"?>
<svg xmlns="http://www.w3.org/2000/svg" xmlns:xlink="http://www.w3.org/1999/xlink" width="64px" height="59px" viewBox="0 0 64 59" version="1.1">
<g id="surface1">
<path style=" stroke:none;fill-rule:nonzero;fill:rgb(98.823529%,78.039217%,16.862746%);fill-opacity:1;" d="M 48.027344 17.851562 L 32.730469 40.164062 C 32.566406 40.402344 32.332031 40.578125 32.058594 40.667969 C 31.789062 40.761719 31.496094 40.757812 31.226562 40.667969 C 30.953125 40.574219 30.71875 40.398438 30.558594 40.160156 C 30.398438 39.921875 30.320312 39.640625 30.332031 39.355469 L 30.945312 27.035156 L 21.0625 24.921875 C 20.847656 24.875 20.652344 24.777344 20.488281 24.640625 C 20.324219 24.5 20.195312 24.320312 20.113281 24.121094 C 20.035156 23.917969 20.007812 23.699219 20.03125 23.484375 C 20.054688 23.269531 20.132812 23.0625 20.253906 22.882812 L 35.554688 0.574219 C 35.714844 0.335938 35.953125 0.160156 36.222656 0.0664062 C 36.492188 -0.0234375 36.789062 -0.0234375 37.058594 0.0703125 C 37.328125 0.160156 37.5625 0.339844 37.722656 0.574219 C 37.882812 0.8125 37.964844 1.097656 37.949219 1.382812 L 37.335938 13.703125 L 47.222656 15.816406 C 47.433594 15.859375 47.628906 15.957031 47.796875 16.097656 C 47.960938 16.238281 48.089844 16.417969 48.167969 16.617188 C 48.25 16.820312 48.277344 17.039062 48.253906 17.253906 C 48.230469 17.46875 48.152344 17.675781 48.027344 17.855469 Z M 48.027344 17.851562 "/>
<path style=" stroke:none;fill-rule:nonzero;fill:rgb(44.705883%,60.784316%,10.588235%);fill-opacity:1;" d="M 32.007812 58.882812 C 31.597656 58.882812 31.195312 58.804688 30.820312 58.644531 C 30.445312 58.488281 30.101562 58.257812 29.816406 57.96875 L 15.359375 43.390625 C 14.78125 42.800781 14.457031 42.007812 14.457031 41.179688 C 14.457031 40.355469 14.785156 39.5625 15.363281 38.976562 C 15.945312 38.390625 16.730469 38.0625 17.550781 38.0625 C 18.371094 38.058594 19.15625 38.386719 19.738281 38.96875 L 32.007812 51.339844 L 58.730469 24.390625 C 59.3125 23.8125 60.097656 23.488281 60.914062 23.492188 C 61.730469 23.496094 62.515625 23.824219 63.09375 24.40625 C 63.671875 24.992188 63.996094 25.78125 64 26.605469 C 64.003906 27.429688 63.683594 28.222656 63.109375 28.808594 L 34.195312 57.96875 C 33.910156 58.257812 33.566406 58.488281 33.191406 58.644531 C 32.816406 58.804688 32.414062 58.882812 32.007812 58.882812 Z M 32.007812 58.882812 "/>
<path style=" stroke:none;fill-rule:nonzero;fill:rgb(44.705883%,60.784316%,10.588235%);fill-opacity:0.501961;" d="M 31.992188 58.882812 C 32.402344 58.882812 32.804688 58.804688 33.179688 58.644531 C 33.554688 58.488281 33.898438 58.257812 34.183594 57.96875 L 48.640625 43.390625 C 49.21875 42.800781 49.542969 42.007812 49.542969 41.179688 C 49.542969 40.355469 49.214844 39.5625 48.636719 38.976562 C 48.054688 38.390625 47.269531 38.0625 46.449219 38.0625 C 45.628906 38.058594 44.84375 38.386719 44.261719 38.96875 L 31.992188 51.339844 L 5.269531 24.390625 C 4.6875 23.8125 3.902344 23.488281 3.085938 23.492188 C 2.269531 23.496094 1.484375 23.824219 0.90625 24.40625 C 0.328125 24.992188 0.00390625 25.78125 0 26.605469 C -0.00390625 27.429688 0.316406 28.222656 0.890625 28.808594 L 29.804688 57.96875 C 30.089844 58.257812 30.433594 58.488281 30.808594 58.644531 C 31.183594 58.804688 31.585938 58.882812 31.992188 58.882812 Z M 31.992188 58.882812 "/>
</g>
</svg>
