<?xml version="1.0" standalone="no"?>
<!DOCTYPE svg PUBLIC "-//W3C//DTD SVG 20010904//EN"
 "http://www.w3.org/TR/2001/REC-SVG-20010904/DTD/svg10.dtd">
<svg version="1.0" xmlns="http://www.w3.org/2000/svg"
 width="300.000000pt" height="302.000000pt" viewBox="0 0 300.000000 302.000000"
 preserveAspectRatio="xMidYMid meet">
<metadata>
Created by potrace 1.10, written by Peter Selinger 2001-2011
</metadata>
<g transform="translate(0.000000,302.000000) scale(0.100000,-0.100000)"
fill="#000000" stroke="none">
<path d="M525 2766 c-81 -17 -118 -38 -190 -110 -52 -51 -66 -74 -91 -141
l-29 -80 -3 -918 -3 -919 25 -81 c45 -146 127 -232 264 -278 56 -19 90 -19
1037 -17 l980 3 68 29 c92 39 167 109 209 194 l33 67 0 980 0 981 -38 76 c-58
119 -146 187 -277 214 -89 19 -1892 19 -1985 0z m1070 -616 l-110 -110 -327 0
-328 0 0 -530 0 -530 225 0 225 0 0 230 0 230 -110 0 -110 0 0 110 0 110 215
0 215 0 0 -450 0 -450 -367 0 c-364 0 -368 0 -405 23 -20 12 -46 34 -58 49
-51 65 -50 56 -50 678 0 552 1 583 19 618 11 20 34 51 53 68 69 66 47 63 558
64 l465 0 -110 -110z m805 -645 l0 -755 -110 0 -110 0 0 582 0 583 -175 -175
-175 -175 0 -407 0 -408 -110 0 -110 0 0 457 0 458 297 297 298 298 97 0 98 0
0 -755z"/>
</g>
</svg>
